HIERARCHY
ROOT Hips
{
	OFFSET -13.091600 -28.302996 44.698402
	CHANNELS 6 Xposition Yposition Zposition Zrotation Xrotation Yrotation
	JOINT Chest
	{
		OFFSET -0.673000 0.623899 5.369202
		CHANNELS 6 Xposition Yposition Zposition Zrotation Xrotation Yrotation
		JOINT Chest2
		{
			OFFSET 0.000000 0.000000 4.415001
			CHANNELS 6 Xposition Yposition Zposition Zrotation Xrotation Yrotation
			JOINT Neck
			{
				OFFSET 0.000000 0.000002 10.273300
				CHANNELS 6 Xposition Yposition Zposition Zrotation Xrotation Yrotation
				JOINT Head
				{
					OFFSET 0.000000 0.000000 2.173897
					CHANNELS 6 Xposition Yposition Zposition Zrotation Xrotation Yrotation
					End Site
					{
						OFFSET 0.000000 0.000000 9.961800
					}
				}
			}
			JOINT LeftCollar
			{
				OFFSET 2.359900 -0.565201 5.928101
				CHANNELS 6 Xposition Yposition Zposition Zrotation Xrotation Yrotation
				JOINT LeftShoulder
				{
					OFFSET 5.443700 0.000000 0.000000
					CHANNELS 6 Xposition Yposition Zposition Zrotation Xrotation Yrotation
					JOINT LeftElbow
					{
						OFFSET 0.000000 0.000000 -10.615799
						CHANNELS 6 Xposition Yposition Zposition Zrotation Xrotation Yrotation
						JOINT LeftWrist
						{
							OFFSET 0.000000 -0.000002 -13.110302
							CHANNELS 6 Xposition Yposition Zposition Zrotation Xrotation Yrotation
							End Site
							{
								OFFSET 0.000000 0.000000 -2.173901
							}
						}
					}
				}
			}
			JOINT RightCollar
			{
				OFFSET -2.636600 -1.718800 6.889698
				CHANNELS 6 Xposition Yposition Zposition Zrotation Xrotation Yrotation
				JOINT RightShoulder
				{
					OFFSET -4.139101 0.000000 0.000000
					CHANNELS 6 Xposition Yposition Zposition Zrotation Xrotation Yrotation
					JOINT RightElbow
					{
						OFFSET 0.000000 0.000000 -10.471802
						CHANNELS 6 Xposition Yposition Zposition Zrotation Xrotation Yrotation
						JOINT RightWrist
						{
							OFFSET 0.000000 0.000000 -12.281898
							CHANNELS 6 Xposition Yposition Zposition Zrotation Xrotation Yrotation
							End Site
							{
								OFFSET 0.000000 -0.000002 -2.173901
							}
						}
					}
				}
			}
		}
	}
	JOINT LeftHip
	{
		OFFSET 2.273400 0.176701 -2.518002
		CHANNELS 6 Xposition Yposition Zposition Zrotation Xrotation Yrotation
		JOINT LeftKnee
		{
			OFFSET 0.000000 -0.000002 -20.456402
			CHANNELS 6 Xposition Yposition Zposition Zrotation Xrotation Yrotation
			JOINT LeftAnkle
			{
				OFFSET 0.000000 -0.000002 -16.635300
				CHANNELS 6 Xposition Yposition Zposition Zrotation Xrotation Yrotation
				End Site
				{
					OFFSET 0.000000 -8.812399 0.000001
				}
			}
		}
	}
	JOINT RightHip
	{
		OFFSET -1.914800 0.018101 -2.699299
		CHANNELS 6 Xposition Yposition Zposition Zrotation Xrotation Yrotation
		JOINT RightKnee
		{
			OFFSET 0.000000 -0.000002 -20.148901
			CHANNELS 6 Xposition Yposition Zposition Zrotation Xrotation Yrotation
			JOINT RightAnkle
			{
				OFFSET 0.000000 -0.000002 -16.838301
				CHANNELS 6 Xposition Yposition Zposition Zrotation Xrotation Yrotation
				End Site
				{
					OFFSET 0.000000 -8.328398 0.000001
				}
			}
		}
	}
}
MOTION
Frames: 10
Frame Time: 0.041667
-1.578100 -26.977894 23.513601 37.859790 39.840681 12.561014 -0.673001 0.623893 5.369211 7.012702 30.303777 18.298188 0.000002 0.000005 4.415003 -4.352915 -7.275744 -0.917361 -0.000003 -0.000006 10.273305 7.872740 17.489398 3.103805 -0.000001 -0.000001 2.173900 0.823508 -4.047367 1.550312 2.359897 -0.565206 5.928102 3.105874 8.892701 -4.203022 5.443696 0.000004 0.000001 -51.610958 -11.473674 -111.955994 -0.000003 -0.000005 -10.615792 145.192227 -189.160860 186.895382 -0.000009 -0.000002 -13.110296 -52.023194 3.592599 -5.098179 -2.636603 -1.718804 6.889699 20.121775 26.463843 25.129958 -4.139098 0.000003 0.000005 259.167157 -165.474037 303.816185 -0.000001 -0.000001 -10.471804 5.622841 -0.212413 -0.998792 0.000005 -0.000004 -12.281900 3.350654 9.926664 -3.731285 2.273399 0.176699 -2.518005 -34.163933 -153.189245 -34.629609 -0.000001 -0.000003 -20.456398 -151.980998 -4.095973 122.301285 -0.000004 -0.000003 -16.635302 54.688485 0.290267 32.316825 -1.914801 0.018097 -2.699296 -62.201501 147.494329 151.054128 0.000000 -0.000002 -20.148897 -248.322838 20.046076 7.100617 0.000005 -0.000003 -16.838303 438.202479 55.997907 -22.744904
-1.612803 -27.016594 23.575201 38.040520 39.905049 12.737805 -0.672996 0.623900 5.369210 7.422098 30.392774 18.433077 0.000000 0.000001 4.415008 -4.598572 -7.276114 -0.906224 -0.000000 -0.000007 10.273301 8.187373 17.411426 2.841340 -0.000001 -0.000000 2.173899 0.564059 -3.929288 1.518613 2.359900 -0.565204 5.928101 3.006320 9.255931 -4.278923 5.443701 0.000001 -0.000002 -54.277034 -16.901831 -113.923348 -0.000003 -0.000004 -10.615791 141.891456 -188.645877 187.829628 -0.000008 -0.000000 -13.110298 -54.888554 4.580859 -5.192020 -2.636596 -1.718809 6.889697 20.133885 25.436340 24.727476 -4.139091 0.000007 0.000003 259.424081 -165.297750 303.662260 -0.000001 -0.000006 -10.471804 6.840297 -0.127973 -0.770340 0.000005 -0.000005 -12.281898 4.430514 8.930519 -4.022525 2.273402 0.176705 -2.518009 -34.070210 -153.222098 -34.555570 0.000003 -0.000007 -20.456396 -152.054737 -4.005391 122.042872 -0.000003 -0.000006 -16.635302 54.381809 0.473169 32.151821 -1.914793 0.018102 -2.699300 -67.067677 146.165912 153.853153 0.000000 -0.000000 -20.148903 -237.806915 21.292905 5.017295 0.000003 -0.000003 -16.838299 428.930744 55.706914 -17.655470
-1.650499 -27.055296 23.641106 38.246454 40.033928 12.884847 -0.672998 0.623896 5.369210 7.918065 30.470529 18.536485 0.000002 -0.000003 4.415006 -4.893201 -7.262938 -0.893841 -0.000004 -0.000005 10.273302 8.336534 17.289318 2.602500 -0.000001 0.000001 2.173899 0.467109 -3.821965 1.534315 2.359898 -0.565202 5.928099 2.827546 9.736195 -4.401489 5.443698 0.000001 -0.000003 -58.537829 -25.033446 -117.275728 0.000000 -0.000003 -10.615795 134.603371 -186.989570 189.249215 0.000002 -0.000002 -13.110298 -56.667617 5.979158 -4.929612 -2.636601 -1.718804 6.889692 20.062383 24.231454 24.266064 -4.139097 0.000001 0.000000 259.685240 -165.196608 303.378070 -0.000003 -0.000004 -10.471795 7.965031 -0.095799 -0.606673 0.000004 -0.000002 -12.281901 5.028293 8.674347 -2.719692 2.273399 0.176702 -2.518006 -33.959561 -153.326614 -34.470653 -0.000000 -0.000005 -20.456396 -152.039301 -4.026148 121.779145 -0.000003 -0.000005 -16.635302 54.154101 0.645072 32.024035 -1.914796 0.018099 -2.699296 -69.243966 145.897157 155.226335 0.000000 0.000000 -20.148899 -224.672611 23.194837 1.390735 -0.000000 -0.000006 -16.838305 412.871275 54.529498 -9.270480
-1.690100 -27.092592 23.711702 38.446530 40.235931 13.040663 -0.673002 0.623889 5.369218 8.384403 30.462125 18.625668 -0.000002 -0.000005 4.415005 -5.148556 -7.234237 -0.881804 -0.000003 0.000002 10.273314 8.376917 17.149907 2.412056 -0.000003 -0.000006 2.173898 0.526289 -3.726699 1.584766 2.359897 -0.565201 5.928105 2.556573 10.233551 -4.600217 5.443696 0.000007 0.000001 -64.197385 -34.392304 -121.881174 -0.000001 -0.000002 -10.615794 118.597629 -183.119858 190.360350 0.000000 -0.000004 -13.110294 -51.002955 7.296255 -3.901427 -2.636602 -1.718807 6.889705 19.940138 22.839382 23.907190 -4.139102 0.000001 0.000003 259.979430 -165.071110 302.884657 0.000000 0.000002 -10.471793 9.024806 -0.072883 -0.463304 0.000005 -0.000000 -12.281901 6.103790 7.970208 -2.613388 2.273397 0.176695 -2.518002 -33.783878 -153.462493 -34.361534 0.000006 -0.000006 -20.456398 -151.893940 -4.147812 121.491785 -0.000007 -0.000004 -16.635302 54.021889 0.816499 31.902157 -1.914801 0.018098 -2.699294 -71.488161 145.620029 156.700276 0.000000 -0.000001 -20.148901 -206.628290 24.758386 -4.125644 0.000001 -0.000003 -16.838301 392.304237 51.827086 0.051658
-1.731901 -27.129795 23.785706 38.630423 40.461829 13.220963 -0.673000 0.623899 5.369210 8.872686 30.421396 18.671922 0.000004 -0.000003 4.415001 -5.386016 -7.195614 -0.869395 -0.000005 -0.000001 10.273303 8.313398 17.018910 2.274474 -0.000003 -0.000006 2.173904 0.678605 -3.662059 1.673892 2.359897 -0.565204 5.928102 2.166786 10.803054 -4.813648 5.443697 0.000006 -0.000001 -70.017553 -41.938792 -126.973066 -0.000002 -0.000001 -10.615792 92.974345 -177.557721 189.269774 -0.000000 -0.000002 -13.110295 -33.792846 8.032930 -2.367831 -2.636603 -1.718807 6.889706 19.760975 21.433497 23.585191 -4.139099 0.000001 0.000004 260.269385 -164.942744 302.367147 0.000001 0.000001 -10.471803 10.036446 -0.087276 -0.362846 -0.000001 -0.000006 -12.281901 7.197037 7.485086 -2.202902 2.273401 0.176705 -2.518004 -33.574970 -153.609588 -34.265037 0.000003 -0.000001 -20.456398 -151.682519 -4.364201 121.194480 -0.000003 -0.000003 -16.635300 53.966271 0.952904 31.797143 -1.914797 0.018100 -2.699296 -73.746256 145.386450 158.221209 -0.000002 -0.000000 -20.148899 -173.735137 23.805019 -14.790390 0.000002 -0.000005 -16.838301 360.132352 45.508430 8.378424
-1.775802 -27.166792 23.862301 38.762232 40.702074 13.456759 -0.672997 0.623893 5.369211 8.823944 30.149384 18.897475 0.000001 0.000000 4.415003 -5.350494 -7.174877 -0.860388 -0.000006 -0.000001 10.273304 8.482522 16.947311 2.226649 0.000003 -0.000005 2.173902 0.922430 -3.626240 1.763896 2.359896 -0.565204 5.928102 1.867168 11.061858 -5.157399 5.443697 -0.000002 0.000004 -73.259591 -46.025735 -129.926304 -0.000003 0.000003 -10.615795 74.233105 -174.615890 186.793912 -0.000002 -0.000005 -13.110291 -19.788462 8.348737 -1.287764 -2.636603 -1.718803 6.889700 19.772887 20.576211 23.613245 -4.139099 0.000006 -0.000000 260.510327 -164.459002 302.236499 0.000001 -0.000003 -10.471795 10.928238 -0.121072 -0.273608 0.000001 0.000001 -12.281893 8.270701 7.061089 -1.707784 2.273401 0.176704 -2.518005 -33.316249 -153.759142 -34.183150 0.000006 -0.000007 -20.456398 -151.405842 -4.700596 120.880879 -0.000003 -0.000006 -16.635302 53.967664 1.010126 31.729579 -1.914797 0.018102 -2.699295 -75.701801 145.248221 159.610798 0.000002 0.000004 -20.148905 -149.234975 19.821317 -21.653353 -0.000003 -0.000005 -16.838305 340.095418 41.077997 6.918793
-1.822398 -27.205097 23.940601 38.867601 40.923994 13.732833 -0.672999 0.623892 5.369210 8.412544 29.748544 19.224553 0.000000 0.000003 4.415006 -5.161042 -7.176797 -0.854271 0.000002 -0.000001 10.273306 8.866271 16.920884 2.224042 0.000002 -0.000006 2.173900 1.207014 -3.549339 1.910937 2.359905 -0.565199 5.928100 1.757798 11.060369 -5.555093 5.443697 -0.000001 0.000005 -74.705324 -48.483405 -131.103992 -0.000003 0.000001 -10.615793 64.759155 -173.966790 185.078374 -0.000003 -0.000002 -13.110300 -13.166315 8.473880 -0.698096 -2.636596 -1.718803 6.889707 17.585966 22.500501 24.383381 -4.139098 0.000006 -0.000001 262.669186 -163.639585 305.617060 -0.000001 -0.000001 -10.471790 11.759979 -0.164919 -0.194059 0.000001 -0.000001 -12.281898 9.382103 6.702971 -1.204265 2.273399 0.176706 -2.518007 -33.023046 -153.886471 -34.116443 0.000004 -0.000009 -20.456400 -151.070397 -5.149888 120.564068 -0.000003 -0.000004 -16.635303 54.060906 1.053904 31.679298 -1.914799 0.018096 -2.699296 -77.763404 145.162297 161.080968 -0.000001 0.000002 -20.148901 -127.348372 14.215387 -25.938458 -0.000003 -0.000004 -16.838306 324.172171 37.733745 -0.231223
-1.872401 -27.243801 24.019104 38.979203 41.135029 14.036127 -0.672998 0.623896 5.369207 7.548804 29.174115 19.653750 0.000004 0.000000 4.415006 -4.761885 -7.178762 -0.851456 -0.000003 -0.000002 10.273300 9.530985 16.942742 2.239989 0.000002 -0.000005 2.173897 1.410392 -3.552344 2.017175 2.359898 -0.565203 5.928103 1.775107 10.738145 -5.957915 5.443696 -0.000000 0.000004 -73.812591 -49.312002 -130.286378 -0.000005 0.000004 -10.615797 62.368390 -174.217444 184.359592 -0.000000 -0.000005 -13.110294 -11.556754 8.448194 -0.449308 -2.636601 -1.718803 6.889699 17.550104 22.918370 25.008271 -4.139102 -0.000000 0.000002 263.213279 -162.658879 306.706612 -0.000000 0.000001 -10.471798 12.510385 -0.220248 -0.123317 0.000004 0.000000 -12.281899 10.539432 6.360318 -0.690475 2.273400 0.176705 -2.518009 -32.770930 -153.967832 -34.032008 0.000001 -0.000009 -20.456400 -150.816683 -5.511618 120.235986 -0.000004 -0.000007 -16.635300 54.096027 1.111524 31.616952 -1.914795 0.018098 -2.699297 -80.150043 145.111221 162.733806 0.000000 -0.000002 -20.148905 -106.469399 7.730308 -27.849092 0.000001 -0.000003 -16.838301 310.386745 34.891714 -12.186322
-1.925100 -27.283295 24.094900 39.157601 41.294446 14.262069 -0.672999 0.623897 5.369203 6.260069 28.524490 20.218591 -0.000002 -0.000003 4.415006 -4.221869 -7.173730 -0.852244 0.000000 0.000005 10.273304 10.368328 16.964216 2.328676 0.000001 -0.000000 2.173903 1.603650 -3.564085 2.050980 2.359900 -0.565196 5.928106 2.028496 10.056507 -6.375819 5.443696 0.000001 0.000003 -72.117058 -49.608548 -128.607940 0.000002 0.000000 -10.615793 61.529616 -174.519448 183.953769 -0.000001 -0.000006 -13.110294 -10.951035 8.405827 -0.305096 -2.636600 -1.718800 6.889700 17.577900 23.559378 25.948415 -4.139099 -0.000002 -0.000003 263.865070 -161.438256 308.024729 -0.000000 0.000001 -10.471798 13.202208 -0.297930 -0.065895 0.000004 -0.000002 -12.281898 11.690060 5.945207 -0.219829 2.273400 0.176702 -2.518009 -32.652399 -154.016791 -33.984030 0.000001 -0.000002 -20.456398 -150.712687 -5.741816 119.930062 -0.000003 -0.000001 -16.635303 54.026612 1.151844 31.571330 -1.914804 0.018100 -2.699295 -82.506056 145.130141 164.300474 -0.000000 0.000003 -20.148903 -96.909524 5.048416 -27.879683 0.000002 -0.000002 -16.838306 304.961827 33.702049 -18.308590
-1.980301 -27.322496 24.167101 39.398300 41.417574 14.407222 -0.672998 0.623897 5.369206 4.533159 27.764823 20.918773 -0.000002 0.000003 4.415005 -3.523445 -7.152426 -0.840125 -0.000001 -0.000002 10.273302 11.439624 16.972593 2.444142 0.000002 -0.000002 2.173897 1.784296 -3.565075 2.056825 2.359899 -0.565207 5.928098 2.526195 9.000846 -6.824840 5.443697 -0.000007 0.000004 -69.898694 -49.522071 -126.276264 -0.000003 0.000001 -10.615797 61.923069 -174.826027 183.799803 -0.000001 -0.000008 -13.110293 -11.286098 8.345164 -0.245284 -2.636602 -1.718804 6.889701 17.594745 24.344314 27.117658 -4.139097 -0.000004 -0.000004 264.726658 -160.110672 309.551195 0.000002 -0.000000 -10.471793 13.847613 -0.371595 -0.000376 0.000002 0.000003 -12.281894 12.868326 5.489525 0.230745 2.273402 0.176706 -2.518003 -32.664055 -154.037254 -33.947314 0.000003 0.000001 -20.456394 -150.771399 -5.762153 119.639861 -0.000005 -0.000003 -16.635300 53.811007 1.225249 31.492452 -1.914797 0.018102 -2.699296 -84.703655 145.184564 165.705580 -0.000002 0.000001 -20.148901 -90.146954 3.405654 -27.707769 -0.000003 -0.000001 -16.838303 301.437230 32.872994 -22.597638
